<mxfile host="app.diagrams.net" agent="Mozilla/5.0 (Macintosh; Intel Mac OS X 10_15_7) AppleWebKit/605.1.15 (KHTML, like Gecko) Version/17.6 Safari/605.1.15" version="24.7.8">
  <diagram name="Page-1" id="luremj6bGSE_2L1miohb">
    <mxGraphModel dx="1026" dy="618" grid="1" gridSize="10" guides="1" tooltips="1" connect="1" arrows="1" fold="1" page="1" pageScale="1" pageWidth="827" pageHeight="1169" math="0" shadow="0">
      <root>
        <mxCell id="0" />
        <mxCell id="1" parent="0" />
        <mxCell id="VhksAo5o0qgYqjRdCGh6-4" value="Book" style="swimlane;fontStyle=0;childLayout=stackLayout;horizontal=1;startSize=30;horizontalStack=0;resizeParent=1;resizeParentMax=0;resizeLast=0;collapsible=1;marginBottom=0;whiteSpace=wrap;html=1;" vertex="1" parent="1">
          <mxGeometry x="310" y="260" width="140" height="180" as="geometry" />
        </mxCell>
        <mxCell id="VhksAo5o0qgYqjRdCGh6-5" value="id : string" style="text;strokeColor=none;fillColor=none;align=left;verticalAlign=middle;spacingLeft=4;spacingRight=4;overflow=hidden;points=[[0,0.5],[1,0.5]];portConstraint=eastwest;rotatable=0;whiteSpace=wrap;html=1;" vertex="1" parent="VhksAo5o0qgYqjRdCGh6-4">
          <mxGeometry y="30" width="140" height="30" as="geometry" />
        </mxCell>
        <mxCell id="VhksAo5o0qgYqjRdCGh6-6" value="title : string" style="text;strokeColor=none;fillColor=none;align=left;verticalAlign=middle;spacingLeft=4;spacingRight=4;overflow=hidden;points=[[0,0.5],[1,0.5]];portConstraint=eastwest;rotatable=0;whiteSpace=wrap;html=1;" vertex="1" parent="VhksAo5o0qgYqjRdCGh6-4">
          <mxGeometry y="60" width="140" height="30" as="geometry" />
        </mxCell>
        <mxCell id="VhksAo5o0qgYqjRdCGh6-7" value="author : string" style="text;strokeColor=none;fillColor=none;align=left;verticalAlign=middle;spacingLeft=4;spacingRight=4;overflow=hidden;points=[[0,0.5],[1,0.5]];portConstraint=eastwest;rotatable=0;whiteSpace=wrap;html=1;" vertex="1" parent="VhksAo5o0qgYqjRdCGh6-4">
          <mxGeometry y="90" width="140" height="30" as="geometry" />
        </mxCell>
        <mxCell id="VhksAo5o0qgYqjRdCGh6-8" value="imageId : string" style="text;strokeColor=none;fillColor=none;align=left;verticalAlign=middle;spacingLeft=4;spacingRight=4;overflow=hidden;points=[[0,0.5],[1,0.5]];portConstraint=eastwest;rotatable=0;whiteSpace=wrap;html=1;" vertex="1" parent="VhksAo5o0qgYqjRdCGh6-4">
          <mxGeometry y="120" width="140" height="30" as="geometry" />
        </mxCell>
        <mxCell id="VhksAo5o0qgYqjRdCGh6-9" value="publicationYear : Date" style="text;strokeColor=none;fillColor=none;align=left;verticalAlign=middle;spacingLeft=4;spacingRight=4;overflow=hidden;points=[[0,0.5],[1,0.5]];portConstraint=eastwest;rotatable=0;whiteSpace=wrap;html=1;" vertex="1" parent="VhksAo5o0qgYqjRdCGh6-4">
          <mxGeometry y="150" width="140" height="30" as="geometry" />
        </mxCell>
        <mxCell id="VhksAo5o0qgYqjRdCGh6-10" value="OpenLibrary.org" style="shape=cylinder3;whiteSpace=wrap;html=1;boundedLbl=1;backgroundOutline=1;size=15;" vertex="1" parent="1">
          <mxGeometry x="325" y="20" width="110" height="80" as="geometry" />
        </mxCell>
        <mxCell id="VhksAo5o0qgYqjRdCGh6-11" value="" style="endArrow=classic;html=1;rounded=0;exitX=0;exitY=1;exitDx=0;exitDy=-15;exitPerimeter=0;entryX=0;entryY=0;entryDx=0;entryDy=0;strokeColor=#009900;" edge="1" parent="1">
          <mxGeometry width="50" height="50" relative="1" as="geometry">
            <mxPoint x="325" y="90" as="sourcePoint" />
            <mxPoint x="310" y="265" as="targetPoint" />
          </mxGeometry>
        </mxCell>
        <mxCell id="VhksAo5o0qgYqjRdCGh6-13" value="Fetch the books data" style="edgeLabel;html=1;align=center;verticalAlign=middle;resizable=0;points=[];" vertex="1" connectable="0" parent="VhksAo5o0qgYqjRdCGh6-11">
          <mxGeometry x="0.0308" y="-2" relative="1" as="geometry">
            <mxPoint x="5" y="-15" as="offset" />
          </mxGeometry>
        </mxCell>
        <mxCell id="VhksAo5o0qgYqjRdCGh6-14" value="" style="endArrow=classic;html=1;rounded=0;exitX=1;exitY=0.5;exitDx=0;exitDy=0;entryX=1;entryY=1;entryDx=0;entryDy=-15;strokeColor=#FF8000;entryPerimeter=0;" edge="1" parent="1" source="VhksAo5o0qgYqjRdCGh6-8" target="VhksAo5o0qgYqjRdCGh6-10">
          <mxGeometry width="50" height="50" relative="1" as="geometry">
            <mxPoint x="515" y="100" as="sourcePoint" />
            <mxPoint x="500" y="275" as="targetPoint" />
            <Array as="points">
              <mxPoint x="610" y="220" />
            </Array>
          </mxGeometry>
        </mxCell>
        <mxCell id="VhksAo5o0qgYqjRdCGh6-17" value="Retrieve the image of the book" style="edgeLabel;html=1;align=center;verticalAlign=middle;resizable=0;points=[];" vertex="1" connectable="0" parent="VhksAo5o0qgYqjRdCGh6-14">
          <mxGeometry x="-0.4189" y="1" relative="1" as="geometry">
            <mxPoint as="offset" />
          </mxGeometry>
        </mxCell>
      </root>
    </mxGraphModel>
  </diagram>
</mxfile>
